<svg width="25" height="24" viewBox="0 0 25 24" fill="none" xmlns="http://www.w3.org/2000/svg">
<g id="Books">
<path id="Vector" d="M22.0922 18.2391L18.9806 3.44531C18.9404 3.25185 18.8623 3.06824 18.7509 2.90505C18.6395 2.74185 18.4969 2.60227 18.3314 2.49434C18.1659 2.3864 17.9807 2.31223 17.7864 2.27609C17.5921 2.23995 17.3926 2.24255 17.1994 2.28375L12.8109 3.22687C12.4228 3.31187 12.0839 3.54668 11.8679 3.88026C11.652 4.21383 11.5765 4.61917 11.6578 5.00812L14.7694 19.8019C14.8387 20.1394 15.0221 20.4427 15.2888 20.6609C15.5555 20.8791 15.8892 20.9989 16.2338 21C16.3403 20.9999 16.4465 20.9885 16.5506 20.9662L20.9391 20.0231C21.3277 19.9379 21.667 19.7026 21.8829 19.3685C22.0989 19.0343 22.1741 18.6284 22.0922 18.2391ZM13.125 4.70156C13.125 4.69593 13.125 4.69312 13.125 4.69312L17.5125 3.75562L17.8247 5.24343L13.4372 6.1875L13.125 4.70156ZM13.7456 7.65187L18.135 6.70968L18.4481 8.20031L14.0625 9.14343L13.7456 7.65187ZM14.3681 10.6116L18.7575 9.66843L20.0044 15.5972L15.615 16.5403L14.3681 10.6116ZM20.625 18.5569L16.2375 19.4944L15.9253 18.0066L20.3128 17.0625L20.625 18.5484C20.625 18.5541 20.625 18.5569 20.625 18.5569ZM10.125 3H5.625C5.22718 3 4.84564 3.15803 4.56434 3.43934C4.28304 3.72064 4.125 4.10217 4.125 4.5V19.5C4.125 19.8978 4.28304 20.2794 4.56434 20.5607C4.84564 20.842 5.22718 21 5.625 21H10.125C10.5228 21 10.9044 20.842 11.1857 20.5607C11.467 20.2794 11.625 19.8978 11.625 19.5V4.5C11.625 4.10217 11.467 3.72064 11.1857 3.43934C10.9044 3.15803 10.5228 3 10.125 3ZM5.625 4.5H10.125V6H5.625V4.5ZM5.625 7.5H10.125V16.5H5.625V7.5ZM10.125 19.5H5.625V18H10.125V19.5Z" fill="#94A3B8"/>
</g>
</svg>
