<svg width="25" height="24" viewBox="0 0 25 24" fill="none" xmlns="http://www.w3.org/2000/svg">
<g id="Gear">
<path id="Vector" d="M12.125 7.50001C11.235 7.50001 10.365 7.76393 9.62495 8.2584C8.88492 8.75287 8.30815 9.45567 7.96755 10.2779C7.62696 11.1002 7.53785 12.005 7.71148 12.8779C7.88511 13.7508 8.3137 14.5527 8.94303 15.182C9.57237 15.8113 10.3742 16.2399 11.2471 16.4135C12.12 16.5872 13.0248 16.4981 13.8471 16.1575C14.6694 15.8169 15.3722 15.2401 15.8666 14.5001C16.3611 13.7601 16.625 12.89 16.625 12C16.6238 10.8069 16.1493 9.66305 15.3056 8.8194C14.462 7.97576 13.3181 7.50125 12.125 7.50001ZM12.125 15C11.5317 15 10.9516 14.8241 10.4583 14.4944C9.96495 14.1648 9.58044 13.6962 9.35337 13.1481C9.12631 12.5999 9.0669 11.9967 9.18266 11.4147C9.29841 10.8328 9.58413 10.2982 10.0037 9.87869C10.4232 9.45913 10.9578 9.17341 11.5397 9.05766C12.1217 8.9419 12.7249 9.00131 13.2731 9.22837C13.8212 9.45544 14.2898 9.83995 14.6194 10.3333C14.9491 10.8266 15.125 11.4067 15.125 12C15.125 12.7957 14.8089 13.5587 14.2463 14.1213C13.6837 14.6839 12.9207 15 12.125 15ZM20.375 12.2025C20.3788 12.0675 20.3788 11.9325 20.375 11.7975L21.7738 10.05C21.8471 9.95826 21.8979 9.85056 21.922 9.7356C21.9461 9.62064 21.9428 9.50162 21.9125 9.38814C21.6832 8.5262 21.3402 7.69862 20.8925 6.9272C20.8339 6.82625 20.7525 6.74037 20.6549 6.67641C20.5572 6.61245 20.446 6.57216 20.33 6.55876L18.1063 6.31126C18.0138 6.21376 17.92 6.12001 17.825 6.03001L17.5625 3.80064C17.549 3.68459 17.5086 3.57329 17.4445 3.47563C17.3803 3.37797 17.2943 3.29665 17.1931 3.23814C16.4214 2.79127 15.5939 2.44861 14.7322 2.21907C14.6186 2.18888 14.4996 2.1858 14.3846 2.21006C14.2697 2.23432 14.162 2.28526 14.0703 2.35876L12.3275 3.75001C12.1925 3.75001 12.0575 3.75001 11.9225 3.75001L10.175 2.35407C10.0833 2.28073 9.97556 2.22997 9.8606 2.20587C9.74564 2.18177 9.62662 2.18501 9.51314 2.21532C8.65134 2.44504 7.82381 2.78803 7.0522 3.23532C6.95125 3.29394 6.86537 3.37532 6.80141 3.47297C6.73745 3.57062 6.69716 3.68186 6.68376 3.79782L6.43626 6.02532C6.33876 6.11845 6.24501 6.2122 6.15501 6.30657L3.92564 6.56251C3.80959 6.57601 3.69829 6.61644 3.60063 6.68057C3.50297 6.7447 3.42165 6.83076 3.36314 6.93189C2.91627 7.7036 2.57361 8.53111 2.34407 9.39282C2.31388 9.50638 2.3108 9.62544 2.33506 9.7404C2.35932 9.85537 2.41026 9.96303 2.48376 10.0547L3.87501 11.7975C3.87501 11.9325 3.87501 12.0675 3.87501 12.2025L2.47907 13.95C2.40573 14.0418 2.35497 14.1495 2.33087 14.2644C2.30677 14.3794 2.31001 14.4984 2.34032 14.6119C2.56963 15.4738 2.91264 16.3014 3.36032 17.0728C3.41894 17.1738 3.50032 17.2597 3.59797 17.3236C3.69562 17.3876 3.80686 17.4279 3.92282 17.4413L6.14657 17.6888C6.2397 17.7863 6.33345 17.88 6.42782 17.97L6.68751 20.1994C6.70101 20.3154 6.74144 20.4267 6.80557 20.5244C6.8697 20.622 6.95576 20.7034 7.05689 20.7619C7.8286 21.2087 8.65611 21.5514 9.51782 21.7809C9.63138 21.8111 9.75044 21.8142 9.8654 21.79C9.98037 21.7657 10.088 21.7148 10.1797 21.6413L11.9225 20.25C12.0575 20.2538 12.1925 20.2538 12.3275 20.25L14.075 21.6488C14.1668 21.7221 14.2745 21.7729 14.3894 21.797C14.5044 21.8211 14.6234 21.8178 14.7369 21.7875C15.5988 21.5582 16.4264 21.2152 17.1978 20.7675C17.2988 20.7089 17.3847 20.6275 17.4486 20.5299C17.5126 20.4322 17.5529 20.321 17.5663 20.205L17.8138 17.9813C17.9113 17.8888 18.005 17.795 18.095 17.7L20.3244 17.4375C20.4404 17.424 20.5517 17.3836 20.6494 17.3195C20.747 17.2553 20.8284 17.1693 20.8869 17.0681C21.3337 16.2964 21.6764 15.4689 21.9059 14.6072C21.9361 14.4936 21.9392 14.3746 21.915 14.2596C21.8907 14.1447 21.8398 14.037 21.7663 13.9453L20.375 12.2025ZM18.8656 11.5931C18.8816 11.8642 18.8816 12.1359 18.8656 12.4069C18.8545 12.5924 18.9126 12.7755 19.0288 12.9206L20.3591 14.5828C20.2064 15.0679 20.011 15.5386 19.775 15.9891L17.6563 16.2291C17.4717 16.2496 17.3014 16.3377 17.1781 16.4766C16.9977 16.6795 16.8055 16.8717 16.6025 17.0522C16.4637 17.1754 16.3755 17.3458 16.355 17.5303L16.1197 19.6472C15.6692 19.8833 15.1986 20.0787 14.7134 20.2313L13.0503 18.9009C12.9172 18.7946 12.7519 18.7368 12.5816 18.7369H12.5366C12.2656 18.7528 11.9938 18.7528 11.7228 18.7369C11.5373 18.7257 11.3542 18.7838 11.2091 18.9L9.5422 20.2313C9.05707 20.0786 8.58647 19.8832 8.13595 19.6472L7.89595 17.5313C7.87547 17.3467 7.78728 17.1764 7.64845 17.0531C7.44549 16.8727 7.25328 16.6805 7.07282 16.4775C6.94957 16.3387 6.77921 16.2505 6.5947 16.23L4.47782 15.9938C4.24175 15.5433 4.04629 15.0727 3.89376 14.5875L5.22407 12.9244C5.34024 12.7793 5.39837 12.5962 5.3872 12.4106C5.37126 12.1396 5.37126 11.8679 5.3872 11.5969C5.39837 11.4113 5.34024 11.2283 5.22407 11.0831L3.89376 9.4172C4.04641 8.93207 4.24187 8.46147 4.47782 8.01095L6.59376 7.77095C6.77828 7.75047 6.94864 7.66228 7.07189 7.52345C7.25235 7.32049 7.44455 7.12828 7.64751 6.94782C7.7869 6.82449 7.87545 6.65374 7.89595 6.46876L8.13126 4.35282C8.58173 4.11675 9.05234 3.92129 9.53751 3.76876L11.2006 5.09907C11.3458 5.21524 11.5288 5.27337 11.7144 5.2622C11.9854 5.24626 12.2571 5.24626 12.5281 5.2622C12.7137 5.27337 12.8968 5.21524 13.0419 5.09907L14.7078 3.76876C15.1929 3.92141 15.6636 4.11687 16.1141 4.35282L16.3541 6.46876C16.3746 6.65328 16.4627 6.82364 16.6016 6.94689C16.8045 7.12735 16.9967 7.31955 17.1772 7.52251C17.3004 7.66134 17.4708 7.74953 17.6553 7.77001L19.7722 8.00532C20.0083 8.4558 20.2037 8.92641 20.3563 9.41157L19.0259 11.0747C18.9087 11.221 18.8505 11.406 18.8628 11.5931H18.8656Z" fill="#94A3B8"/>
</g>
</svg>
