<svg width="25" height="24" viewBox="0 0 25 24" fill="none" xmlns="http://www.w3.org/2000/svg">
<g id="House">
<path id="Vector" d="M21.3903 9.72843L13.8903 2.65218C13.8866 2.64898 13.8832 2.64554 13.88 2.64187C13.6039 2.39074 13.244 2.25159 12.8708 2.25159C12.4975 2.25159 12.1377 2.39074 11.8616 2.64187L11.8513 2.65218L4.35969 9.72843C4.20687 9.86895 4.08489 10.0397 4.00146 10.2298C3.91803 10.4199 3.87497 10.6252 3.875 10.8328V19.5C3.875 19.8978 4.03304 20.2793 4.31434 20.5607C4.59564 20.842 4.97718 21 5.375 21H9.875C10.2728 21 10.6544 20.842 10.9357 20.5607C11.217 20.2793 11.375 19.8978 11.375 19.5V15H14.375V19.5C14.375 19.8978 14.533 20.2793 14.8143 20.5607C15.0956 20.842 15.4772 21 15.875 21H20.375C20.7728 21 21.1544 20.842 21.4357 20.5607C21.717 20.2793 21.875 19.8978 21.875 19.5V10.8328C21.875 10.6252 21.832 10.4199 21.7485 10.2298C21.6651 10.0397 21.5431 9.86895 21.3903 9.72843ZM20.375 19.5H15.875V15C15.875 14.6022 15.717 14.2206 15.4357 13.9393C15.1544 13.658 14.7728 13.5 14.375 13.5H11.375C10.9772 13.5 10.5956 13.658 10.3143 13.9393C10.033 14.2206 9.875 14.6022 9.875 15V19.5H5.375V10.8328L5.38531 10.8234L12.875 3.74999L20.3656 10.8216L20.3759 10.8309L20.375 19.5Z" fill="#94A3B8"/>
</g>
</svg>
