<svg width="25" height="24" viewBox="0 0 25 24" fill="none" xmlns="http://www.w3.org/2000/svg">
<g id="House">
<path id="Vector" d="M21.875 10.8328V19.5C21.875 19.8978 21.717 20.2793 21.4357 20.5607C21.1544 20.842 20.7728 21 20.375 21H16.625C16.2272 21 15.8456 20.842 15.5643 20.5607C15.283 20.2793 15.125 19.8978 15.125 19.5V15.75C15.125 15.5511 15.046 15.3603 14.9053 15.2197C14.7647 15.079 14.5739 15 14.375 15H11.375C11.1761 15 10.9853 15.079 10.8447 15.2197C10.704 15.3603 10.625 15.5511 10.625 15.75V19.5C10.625 19.8978 10.467 20.2793 10.1857 20.5607C9.90436 20.842 9.52282 21 9.125 21H5.375C4.97718 21 4.59564 20.842 4.31434 20.5607C4.03304 20.2793 3.875 19.8978 3.875 19.5V10.8328C3.87497 10.6252 3.91803 10.4199 4.00146 10.2298C4.08489 10.0397 4.20687 9.86895 4.35969 9.72843L11.8597 2.65218L11.87 2.64187C12.1461 2.39074 12.506 2.25159 12.8792 2.25159C13.2525 2.25159 13.6123 2.39074 13.8884 2.64187C13.8916 2.64554 13.8951 2.64898 13.8988 2.65218L21.3988 9.72843C21.55 9.86969 21.6704 10.0407 21.7524 10.2308C21.8344 10.4209 21.8761 10.6258 21.875 10.8328Z" fill="#020617"/>
</g>
</svg>
