<svg width="25" height="24" viewBox="0 0 25 24" fill="none" xmlns="http://www.w3.org/2000/svg">
<g id="UsersThree">
<path id="Vector" d="M23.575 14.1C23.4962 14.1591 23.4065 14.2021 23.3111 14.2266C23.2157 14.251 23.1164 14.2564 23.0189 14.2425C22.9214 14.2285 22.8276 14.1956 22.7429 14.1454C22.6581 14.0952 22.5841 14.0288 22.525 13.95C22.073 13.3424 21.4846 12.8494 20.8072 12.5107C20.1298 12.172 19.3823 11.9971 18.625 12C18.4775 12 18.3333 11.9565 18.2104 11.875C18.0875 11.7934 17.9914 11.6775 17.9341 11.5416C17.8951 11.4493 17.8751 11.3502 17.8751 11.25C17.8751 11.1499 17.8951 11.0507 17.9341 10.9585C17.9914 10.8226 18.0875 10.7066 18.2104 10.6251C18.3333 10.5435 18.4775 10.5 18.625 10.5C19.0458 10.5 19.4582 10.3819 19.8153 10.1593C20.1724 9.93662 20.4599 9.61828 20.6451 9.24043C20.8303 8.86257 20.9059 8.44034 20.8632 8.0217C20.8205 7.60305 20.6612 7.20477 20.4035 6.8721C20.1458 6.53942 19.8 6.28569 19.4053 6.13972C19.0106 5.99374 18.5829 5.96138 18.1707 6.04631C17.7586 6.13124 17.3785 6.33005 17.0737 6.62016C16.7688 6.91027 16.5515 7.28006 16.4463 7.68752C16.4216 7.78293 16.3785 7.87256 16.3192 7.95129C16.2599 8.03001 16.1857 8.0963 16.1009 8.14636C16.016 8.19641 15.9221 8.22926 15.8245 8.24302C15.7269 8.25679 15.6276 8.2512 15.5322 8.22658C15.4368 8.20195 15.3471 8.15878 15.2684 8.09952C15.1897 8.04026 15.1234 7.96607 15.0733 7.88119C15.0233 7.79631 14.9904 7.7024 14.9767 7.60483C14.9629 7.50726 14.9685 7.40793 14.9931 7.31251C15.1391 6.7475 15.415 6.22436 15.7988 5.78472C16.1826 5.34508 16.6637 5.00108 17.2038 4.78009C17.7439 4.5591 18.3282 4.46722 18.91 4.51176C19.4919 4.5563 20.0554 4.73603 20.5556 5.03665C21.0558 5.33727 21.4789 5.75048 21.7913 6.24341C22.1037 6.73633 22.2967 7.29537 22.3551 7.87602C22.4134 8.45668 22.3354 9.04294 22.1273 9.58815C21.9192 10.1334 21.5867 10.6225 21.1562 11.0166C22.1761 11.4581 23.0626 12.1588 23.7278 13.0491C23.7869 13.1281 23.8298 13.2179 23.8541 13.3136C23.8784 13.4092 23.8836 13.5086 23.8694 13.6063C23.8553 13.7039 23.8219 13.7977 23.7714 13.8825C23.7209 13.9672 23.6541 14.0411 23.575 14.1ZM18.5238 19.875C18.578 19.9604 18.6145 20.0558 18.6309 20.1556C18.6473 20.2555 18.6433 20.3576 18.6193 20.4558C18.5952 20.5541 18.5515 20.6464 18.4908 20.7273C18.4302 20.8083 18.3537 20.8761 18.2661 20.9267C18.1786 20.9773 18.0817 21.0097 17.9813 21.0219C17.8808 21.0341 17.779 21.0259 17.6818 20.9977C17.5847 20.9695 17.4943 20.9219 17.416 20.8579C17.3377 20.7939 17.2731 20.7146 17.2263 20.625C16.7538 19.825 16.0809 19.162 15.274 18.7015C14.4671 18.2409 13.5541 17.9986 12.625 17.9986C11.6959 17.9986 10.7829 18.2409 9.97598 18.7015C9.16908 19.162 8.49621 19.825 8.02375 20.625C7.97687 20.7146 7.91233 20.7939 7.83404 20.8579C7.75574 20.9219 7.6653 20.9695 7.56815 20.9977C7.47101 21.0259 7.36916 21.0341 7.26875 21.0219C7.16834 21.0097 7.07143 20.9773 6.98386 20.9267C6.89628 20.8761 6.81985 20.8083 6.75916 20.7273C6.69848 20.6464 6.65479 20.5541 6.63072 20.4558C6.60666 20.3576 6.60272 20.2555 6.61913 20.1556C6.63555 20.0558 6.67199 19.9604 6.72625 19.875C7.45337 18.6257 8.56206 17.6425 9.88938 17.07C9.1425 16.4982 8.59359 15.7067 8.31981 14.8067C8.04604 13.9068 8.06116 12.9437 8.36305 12.0528C8.66494 11.1619 9.23842 10.388 10.0029 9.8399C10.7673 9.29179 11.6843 8.99701 12.625 8.99701C13.5657 8.99701 14.4827 9.29179 15.2471 9.8399C16.0116 10.388 16.5851 11.1619 16.887 12.0528C17.1888 12.9437 17.204 13.9068 16.9302 14.8067C16.6564 15.7067 16.1075 16.4982 15.3606 17.07C16.6879 17.6425 17.7966 18.6257 18.5238 19.875ZM12.625 16.5C13.2183 16.5 13.7984 16.3241 14.2917 15.9944C14.7851 15.6648 15.1696 15.1962 15.3966 14.6481C15.6237 14.0999 15.6831 13.4967 15.5674 12.9147C15.4516 12.3328 15.1659 11.7983 14.7463 11.3787C14.3268 10.9591 13.7922 10.6734 13.2103 10.5577C12.6283 10.4419 12.0251 10.5013 11.477 10.7284C10.9288 10.9554 10.4602 11.34 10.1306 11.8333C9.80095 12.3267 9.625 12.9067 9.625 13.5C9.625 14.2957 9.94107 15.0587 10.5037 15.6213C11.0663 16.1839 11.8294 16.5 12.625 16.5ZM7.375 11.25C7.375 11.0511 7.29598 10.8603 7.15533 10.7197C7.01468 10.579 6.82391 10.5 6.625 10.5C6.20418 10.5 5.79181 10.3819 5.43472 10.1593C5.07763 9.93662 4.79014 9.61828 4.60491 9.24043C4.41967 8.86257 4.34411 8.44034 4.38681 8.0217C4.42951 7.60305 4.58877 7.20477 4.84648 6.8721C5.10419 6.53942 5.45003 6.28569 5.84472 6.13972C6.23941 5.99374 6.66712 5.96138 7.07928 6.04631C7.49144 6.13124 7.87152 6.33005 8.17635 6.62016C8.48118 6.91027 8.69855 7.28006 8.80375 7.68752C8.85348 7.88021 8.97772 8.04526 9.14914 8.14636C9.32056 8.24745 9.52512 8.27631 9.71781 8.22658C9.91051 8.17685 10.0756 8.05261 10.1767 7.88119C10.2777 7.70977 10.3066 7.50521 10.2569 7.31251C10.1109 6.7475 9.83498 6.22436 9.4512 5.78472C9.06742 5.34508 8.58633 5.00108 8.04621 4.78009C7.50609 4.5591 6.92184 4.46722 6.33996 4.51176C5.75808 4.5563 5.19463 4.73603 4.69443 5.03665C4.19424 5.33727 3.77111 5.75048 3.45871 6.24341C3.14631 6.73633 2.95327 7.29537 2.89494 7.87602C2.83661 8.45668 2.91461 9.04294 3.12273 9.58815C3.33085 10.1334 3.66334 10.6225 4.09375 11.0166C3.07495 11.4586 2.18942 12.1592 1.525 13.0491C1.40553 13.2082 1.35417 13.4083 1.38221 13.6053C1.41025 13.8023 1.5154 13.9801 1.67453 14.0995C1.83366 14.219 2.03374 14.2704 2.23074 14.2423C2.42774 14.2143 2.60553 14.1091 2.725 13.95C3.17705 13.3424 3.76545 12.8494 4.44284 12.5107C5.12022 12.172 5.86767 11.9971 6.625 12C6.82391 12 7.01468 11.921 7.15533 11.7803C7.29598 11.6397 7.375 11.4489 7.375 11.25Z" fill="#94A3B8"/>
</g>
</svg>
